:SAMPLES-PER-SECOND 30
:FULLY-SPECIFIED
:DEGREES
141
root  -33.1002 39.19 0.176312 -88.5775 -83.7712 81.3327
RightUpLeg  -17.908 -6.99109 -7.50233
RightLeg  5.11303 7.1518 -0.410602
RightFoot  -3.53104 -0.503638 7.00916
RightToes  -4.65661e-009 0 -3.6325e-017
Spine  8.48494 -0.511202 -1.90788
Spine1  9.21791 0.576814 -5.01238
HEad  -7.57968 -3.25268 -3.02927
LeftShoulder1  -0.370746 4.48514 -31.6415
LeftArm  4.18195 -4.96625 -44.503
LeftForeArm  26.343 -37.475 -6.97333
LeftHand  -0.0372701 4.87432 3.22525
RightShoulder  -0.795561 -5.68531 29.834
RightArm  9.88207 -12.5296 45.8069
RightForeArm  8.59991 39.6487 8.74451
RightHand  -0.182591 5.00333 -2.34529
LeftUpLeg  7.00219 5.53583 -8.69647
LeftLeg  15.2224 5.48319 0.678156
LeftFoot  -15.0614 0.31942 7.03862
LeftToes  9.86798e-010 -1.28139e-010 1.4132e-011
142
root  -34.3976 38.995 0.120736 -86.5638 -83.646 78.6751
RightUpLeg  -17.2525 -7.65457 -7.20709
RightLeg  2.66418 7.03445 -0.642454
RightFoot  -3.17085 -0.518317 6.8907
RightToes  -4.65661e-009 0 -3.6325e-017
Spine  8.77074 -0.288066 -1.27999
Spine1  9.38404 0.73112 -4.56438
HEad  -7.48066 -4.13653 -3.53138
LeftShoulder1  -0.469386 4.73238 -32.0754
LeftArm  4.00851 -4.59579 -44.3513
LeftForeArm  27.0014 -39.019 -7.37459
LeftHand  -0.0390312 4.79829 3.06461
RightShoulder  -0.766717 -5.61271 29.701
RightArm  6.21814 -12.8906 46.9257
RightForeArm  8.92231 41.0426 9.17811
RightHand  -0.199537 5.32724 -2.46755
LeftUpLeg  9.85573 6.12544 -8.30031
LeftLeg  15.4846 4.47704 0.692456
LeftFoot  -17.1252 0.427815 6.42935
LeftToes  9.86798e-010 -1.28139e-010 1.4132e-011
143
root  -35.749 38.7417 0.042119 -81.7746 -84.0663 73.4354
RightUpLeg  -17.6022 -6.53162 -6.66245
RightLeg  6.19912 5.3534 -0.453926
RightFoot  -2.4782 -0.340034 4.35644
RightToes  -4.65661e-009 0 -3.6325e-017
Spine  8.87808 -0.220181 0.222192
Spine1  9.45903 0.840941 -4.35981
HEad  -6.98509 -5.16298 -3.97974
LeftShoulder1  -0.443463 4.65704 -32.3114
LeftArm  3.42524 -3.32757 -44.288
LeftForeArm  27.5724 -39.5272 -7.4891
LeftHand  -0.0343315 4.87524 2.29724
RightShoulder  -0.707659 -5.46374 29.4257
RightArm  4.89488 -11.833 47.8213
RightForeArm  8.69852 41.5479 9.36333
RightHand  -0.265404 5.4226 -3.16707
LeftUpLeg  12.1152 6.31415 -7.43815
LeftLeg  16.7399 3.7438 1.19434
LeftFoot  -19.6455 0.517025 5.49695
LeftToes  9.86798e-010 -1.28139e-010 1.4132e-011
144
root  -37.082 38.5314 -0.0379995 -71.4937 -84.7744 63.0841
RightUpLeg  -18.703 -5.69324 -5.7977
RightLeg  11.7292 3.60172 0.202851
RightFoot  2.14143 -0.194925 1.63734
RightToes  -4.65661e-009 0 -3.6325e-017
Spine  8.57253 -0.266973 2.79949
Spine1  9.73282 1.00099 -4.40709
HEad  -6.51103 -6.32239 -4.05819
LeftShoulder1  -0.385676 4.50809 -32.2692
LeftArm  3.77718 -1.92197 -44.2895
LeftForeArm  27.3992 -38.6345 -7.23741
LeftHand  -0.0345546 4.8739 2.36152
RightShoulder  -0.724563 -5.50673 29.4984
RightArm  5.78754 -9.27769 48.1031
RightForeArm  7.94241 41.1382 9.27487
RightHand  -0.285699 4.86714 -3.52582
LeftUpLeg  13.6935 5.07695 -6.41383
LeftLeg  18.3525 3.9546 1.79991
LeftFoot  -21.7737 0.485852 3.89489
LeftToes  9.86798e-010 -1.28139e-010 1.4132e-011
145
root  -38.4145 38.2996 -0.15967 -49.3464 -85.2064 40.4763
RightUpLeg  -18.9135 -6.14109 -4.85499
RightLeg  16.276 3.413 0.84148
RightFoot  7.06474 -0.240284 1.7863
RightToes  -4.65661e-009 0 -3.6325e-017
Spine  8.9379 -0.541818 5.63483
Spine1  9.72002 0.979809 -4.44805
HEad  -6.24641 -7.84181 -4.29247
LeftShoulder1  -0.376982 4.47539 -32.647
LeftArm  5.30375 -0.938562 -44.0772
LeftForeArm  26.2811 -36.6359 -6.75134
LeftHand  -0.0389094 4.74979 2.78744
RightShoulder  -0.739088 -5.53316 29.736
RightArm  6.26107 -5.77198 48.0579
RightForeArm  7.94321 40.5575 9.08268
RightHand  -0.277267 5.09223 -3.37958
LeftUpLeg  13.9817 2.9115 -4.81618
LeftLeg  23.3449 3.85085 2.16178
LeftFoot  -23.2557 0.245538 1.07282
LeftToes  9.86798e-010 -1.28139e-010 1.4132e-011
146
root  -39.6241 37.9956 -0.287365 -26.8248 -85.0757 17.5751
RightUpLeg  -20.1176 -7.94991 -3.19089
RightLeg  23.0291 4.07186 1.68716
RightFoot  5.62929 0.111093 -0.518215
RightToes  -4.65661e-009 0 -3.6325e-017
Spine  9.4722 -0.627364 8.73199
Spine1  10.2103 1.25975 -3.94866
HEad  -6.65368 -9.84738 -4.54689
LeftShoulder1  -0.387381 4.48125 -33.478
LeftArm  8.19282 -1.35038 -44.165
LeftForeArm  23.9273 -32.4762 -5.80467
LeftHand  -0.0463247 4.67658 3.04538
RightShoulder  -0.628617 -5.26355 28.9963
RightArm  6.08148 -1.04547 48.5666
RightForeArm  7.17162 39.3032 8.72788
RightHand  -0.290932 5.84821 -3.33161
LeftUpLeg  11.7768 1.97185 -2.27489
LeftLeg  32.4875 2.05102 1.67544
LeftFoot  -23.1373 -0.246985 -3.8877
LeftToes  9.86798e-010 -1.28139e-010 1.4132e-011
147
root  -40.69 37.7378 -0.466389 -4.61575 -83.9256 -4.33609
RightUpLeg  -21.168 -10.1398 -1.15259
RightLeg  27.9452 4.09861 2.11191
RightFoot  2.94641 0.349859 -2.61333
RightToes  -4.65661e-009 0 -3.6325e-017
Spine  10.1976 -0.805691 12.0924
Spine1  9.94371 1.69181 -3.89533
HEad  -7.11457 -12.0514 -4.00715
LeftShoulder1  -0.28306 4.22728 -32.9893
LeftArm  10.8722 -1.16024 -45.229
LeftForeArm  22.6875 -27.8767 -4.7667
LeftHand  -0.0201926 6.61128 1.14363
RightShoulder  -0.600955 -5.19682 28.7517
RightArm  5.83539 4.63347 48.9836
RightForeArm  6.1402 37.7637 8.31495
RightHand  -0.344084 5.49011 -3.97824
LeftUpLeg  6.15499 1.72384 1.18417
LeftLeg  44.734 -0.322734 0.115593
LeftFoot  -17.7794 -0.392475 -9.06148
LeftToes  9.86798e-010 -1.28139e-010 1.4132e-011
148
root  -41.6761 37.6131 -0.650617 6.5986 -82.7458 -15.2399
RightUpLeg  -21.3134 -11.2154 0.529426
RightLeg  30.8701 3.59107 2.06786
RightFoot  0.20709 0.341412 -3.34846
RightToes  -4.65661e-009 0 -3.6325e-017
Spine  11.903 -0.779113 14.7485
Spine1  8.41994 2.28002 -4.03042
HEad  -7.65009 -14.2243 -3.21605
LeftShoulder1  -0.224264 4.08128 -32.7274
LeftArm  13.8401 -0.503194 -45.6569
LeftForeArm  20.9051 -23.9435 -4.14013
LeftHand  -0.0275668 6.4902 0.649424
RightShoulder  -0.521439 -4.98429 28.3385
RightArm  5.94372 10.9116 48.9897
RightForeArm  4.05127 36.3617 8.02467
RightHand  -0.403279 6.0515 -4.41807
LeftUpLeg  -0.917047 1.84898 3.80003
LeftLeg  56.4624 -0.0521462 0.536205
LeftFoot  -6.64816 0.317101 -8.16407
LeftToes  9.86798e-010 -1.28139e-010 1.4132e-011
149
root  -42.5371 37.5354 -0.784302 12.8713 -81.7505 -21.5294
RightUpLeg  -20.9154 -12.3317 1.71206
RightLeg  33.0338 3.48143 2.17523
RightFoot  -2.13853 0.279857 -3.64922
RightToes  -4.65661e-009 0 -3.6325e-017
Spine  13.5824 -0.866674 17.4334
Spine1  7.96146 2.99281 -4.93367
HEad  -9.18406 -16.9006 -2.0392
LeftShoulder1  -0.172232 3.94612 -32.7581
LeftArm  14.3398 -0.0134007 -45.593
LeftForeArm  21.5999 -21.3241 -4.35794
LeftHand  -0.034591 6.11335 0.0098785
RightShoulder  -0.371101 -4.59237 27.0996
RightArm  5.43132 17.9533 49.2823
RightForeArm  3.18165 35.1734 7.73491
RightHand  -0.420751 6.17581 -4.56509
LeftUpLeg  -7.08512 2.1691 5.40786
LeftLeg  64.8217 0.69131 2.19407
LeftFoot  -1.41521 0.277541 -2.77209
LeftToes  9.86798e-010 -1.28139e-010 1.4132e-011
150
root  -43.3273 37.6491 -0.894974 10.9702 -81.9611 -19.5274
RightUpLeg  -20.0406 -12.4401 1.51258
RightLeg  33.8706 3.57069 2.31051
RightFoot  -3.61744 0.238768 -3.89778
RightToes  -4.65661e-009 0 -3.6325e-017
Spine  15.1692 -0.636429 18.7225
Spine1  8.13319 4.04815 -6.54257
HEad  -11.1752 -18.1048 -0.887964
LeftShoulder1  -0.105998 3.78016 -32.2761
LeftArm  13.0315 0.936961 -45.5791
LeftForeArm  23.7051 -20.245 -4.8611
LeftHand  -0.0471683 6.93824 -0.838038
RightShoulder  -0.301331 -4.40164 26.2768
RightArm  5.03984 25.8409 49.3038
RightForeArm  2.84085 33.6898 7.34439
RightHand  -0.440981 7.42826 -4.34436
LeftUpLeg  -11.8981 3.16909 5.43696
LeftLeg  68.1927 0.293207 1.59346
LeftFoot  -2.28084 0.192965 -2.2641
LeftToes  9.86798e-010 -1.28139e-010 1.4132e-011
